<?xml version="1.0" encoding="utf-8"?>
<svg version="1.0" width="891.000000pt" height="761.000000pt" viewBox="0 0 891.000000 761.000000" preserveAspectRatio="xMidYMid meet" xmlns="http://www.w3.org/2000/svg">
  <path fill="#383a41" stroke="none" d="M 819 752 C 818 752 766 752 701 752 C 637 751 571 751 556 751 C 520 750 470 749 323 748 C 261 747 205 747 199 746 C 192 745 173 745 154 745 C 136 745 121 744 120 744 C 119 744 118 744 116 744 C 115 744 110 744 106 744 C 102 743 86 743 70 743 C 34 743 28 742 22 734 C 17 728 16 722 16 715 C 17 708 30 666 46 617 C 55 588 55 588 54 585 C 50 580 47 571 46 566 C 45 562 43 517 41 466 C 40 414 38 369 37 366 L 37 361 L 34 360 C 29 359 27 355 29 351 C 30 350 32 349 33 349 C 34 349 35 349 35 348 C 36 347 35 329 35 306 C 33 255 30 165 30 147 L 30 134 L 31 134 L 32 134 L 33 131 C 36 124 40 118 48 110 C 55 103 59 101 76 96 C 77 95 84 92 89 88 C 95 84 100 81 101 81 C 101 81 102 80 103 80 C 104 78 105 59 104 58 C 103 58 103 52 104 41 C 105 39 105 36 106 35 C 107 32 115 23 117 23 C 117 23 119 22 120 21 C 121 20 123 18 125 18 C 126 18 131 16 135 14 C 144 10 144 10 253 10 C 392 10 385 10 406 11 C 442 13 498 13 566 13 L 636 13 L 636 14 L 636 16 L 645 16 L 654 16 L 654 15 L 654 14 L 657 14 L 660 14 L 660 15 L 661 16 L 680 16 L 700 17 L 700 18 L 701 18 L 701 17 L 704 19 C 705 19 707 20 708 20 C 709 19 722 22 728 25 C 732 26 741 29 743 29 C 746 30 755 39 758 44 C 759 46 759 51 759 61 C 759 74 759 74 767 78 C 772 80 776 83 776 83 C 776 83 778 84 781 85 C 783 86 786 87 787 88 C 787 88 788 89 789 89 C 790 89 791 90 792 91 C 793 92 795 93 796 93 C 798 93 803 95 803 96 L 803 97 L 804 97 C 805 97 810 99 816 102 C 821 105 829 108 832 109 C 847 112 856 115 860 118 C 868 124 877 134 881 142 C 884 149 884 149 884 165 C 884 175 884 186 883 191 C 882 196 879 234 875 275 C 872 316 869 352 868 356 L 868 362 L 871 364 L 875 365 L 875 368 C 875 372 872 376 869 376 C 869 376 868 376 867 377 C 866 379 855 484 852 520 C 852 523 851 532 850 539 C 849 546 847 559 846 567 C 844 582 844 583 840 590 C 834 600 824 607 811 611 L 805 612 L 805 613 C 805 614 807 620 811 628 C 814 636 816 642 816 643 C 816 643 818 648 820 653 C 822 658 829 675 835 690 C 844 715 845 719 846 726 C 846 734 846 735 842 740 C 840 745 837 747 834 748 C 826 752 820 754 819 752 Z"/>
  <path fill="#ece9e2" stroke="none" d=" M517 747 C458 747 397 746 380 746 C363 745 323 745 291 744 C197 742 172 742 159 741 C151 741 133 741 118 740 C102 740 76 739 61 739 C27 738 27 738 22 728 C19 721 18 717 20 710 C21 707 24 700 25 693 C27 686 31 675 33 668 C35 661 39 650 41 643 C44 635 48 622 51 614 C53 605 56 596 57 594 C59 589 58 585 55 580 C50 572 49 568 48 544 C48 532 48 514 47 503 C46 492 45 459 44 431 C43 402 42 374 41 368 L41 358 L37 358 C35 358 33 357 32 356 L31 355 L32 353 L34 352 L36 353 L38 354 L39 353 C40 351 40 337 39 295 C38 275 36 238 36 213 C35 187 34 161 34 155 C33 136 37 126 50 113 C59 104 61 103 72 100 C77 99 81 97 88 93 C93 89 99 86 101 85 C108 81 108 81 108 72 C108 68 108 60 108 55 C106 35 111 27 133 19 C136 18 140 16 143 15 C147 13 149 13 224 13 C267 13 323 14 349 14 C452 16 478 16 488 17 C493 17 512 17 531 17 C568 18 600 19 615 20 C621 20 644 20 667 20 C689 20 708 21 708 21 C709 21 711 22 713 22 C714 23 719 24 722 26 C726 27 731 29 734 30 C743 33 749 37 753 42 C756 47 756 47 756 62 C756 77 756 77 779 88 C791 94 802 99 803 99 C805 100 812 103 819 107 C826 111 833 114 834 114 L835 114 L836 112 L836 110 L838 110 C839 110 840 110 841 111 L842 112 L842 113 L842 114 L847 116 C849 117 853 119 856 120 C862 123 872 134 877 142 C880 148 880 149 881 160 C881 166 880 178 880 187 C879 195 877 210 876 220 C874 252 871 283 869 308 C868 321 867 337 866 344 C865 350 865 357 865 360 L865 366 L869 366 L872 365 L872 369 L872 373 L869 373 C866 372 865 372 864 373 C863 374 862 383 859 415 C859 423 857 436 857 444 C854 462 849 518 847 532 C847 536 847 540 847 540 C846 541 843 560 842 572 C841 583 838 589 831 596 C824 603 814 608 804 608 C800 608 800 609 801 613 C802 615 804 619 805 622 C808 631 821 665 828 684 C832 693 836 703 840 715 C845 727 845 733 839 741 C833 749 841 748 725 748 C669 748 575 747 517 747 Z M632 738 L633 737 L632 736 C631 736 628 736 625 737 C619 739 578 737 576 735 L574 734 L574 735 L574 737 L571 737 C566 738 561 738 560 737 C560 736 557 735 552 734 L544 734 L544 735 L545 737 L550 737 C553 737 555 737 556 738 C558 741 629 741 632 738 Z M673 740 C673 739 673 738 673 736 L672 734 L669 734 L667 734 L668 736 L668 738 L667 738 L665 738 L665 736 L664 734 L661 734 L658 734 L658 735 L658 736 L659 736 L660 736 L660 737 L660 738 L653 737 C649 737 644 736 642 736 L638 735 L636 736 C636 738 635 739 635 739 L635 740 L652 740 C662 740 670 741 671 741 C671 741 672 740 673 740 Z M793 738 L793 736 L791 737 C789 738 782 738 780 736 L777 735 L775 736 C774 738 769 738 733 738 L693 738 L694 736 L694 734 L693 734 C693 734 692 735 690 735 C689 736 687 737 686 737 C683 737 681 738 683 740 C683 741 700 741 738 741 L793 740 L793 738 Z M532 739 C536 739 537 738 538 737 C538 736 538 735 538 734 L537 734 L535 735 C534 737 531 737 525 737 L517 737 L517 736 C517 735 517 734 518 734 C519 733 519 732 519 732 L519 731 L517 731 C516 731 514 732 513 734 C510 737 510 737 500 736 C494 736 489 735 488 735 C487 735 484 735 481 736 C477 737 475 737 471 736 C469 736 465 735 463 735 C460 735 456 734 454 734 L450 733 L448 734 C448 735 445 736 443 736 L439 737 L438 733 L438 729 L437 729 L436 729 L436 731 C436 732 430 736 428 736 L426 736 L426 734 L425 732 L424 732 L423 732 L422 735 C421 736 421 737 421 738 C422 738 433 738 447 738 C461 739 472 739 472 739 C473 740 528 740 532 739 Z M310 737 L310 736 L310 736 C310 735 307 735 303 734 L297 733 L296 734 L296 735 L282 735 C275 735 258 734 245 734 C233 733 221 733 219 733 L215 734 L215 735 L215 736 L223 736 C227 736 240 736 252 737 C277 738 309 738 310 737 Z M199 735 L200 734 L200 733 C199 733 194 733 187 732 C181 732 172 732 168 731 C164 731 158 731 155 731 C150 731 148 731 146 729 C142 728 142 728 138 729 C135 730 131 731 123 731 C118 731 113 731 112 731 L112 732 L112 732 C112 733 124 733 139 733 C164 734 196 735 197 736 C197 736 198 736 199 735 Z M76 731 L76 730 L72 729 C65 728 50 728 48 729 L46 731 L55 731 C68 732 75 732 76 731 Z M43 730 L43 730 L41 729 C39 728 37 728 37 729 L35 729 L35 730 L35 731 L39 731 L43 731 L43 730 Z M824 699 L824 698 L822 697 C820 697 798 696 772 696 C693 695 486 694 484 695 L482 695 L483 696 C483 696 490 697 499 697 C508 697 524 697 534 697 C543 698 606 698 672 698 C738 699 792 699 793 699 C793 700 800 700 809 700 L824 700 L824 699 Z M448 695 L448 694 L433 693 C424 693 417 693 415 694 L411 695 L411 696 C412 696 420 696 430 696 L448 696 L448 695 Z M43 690 C46 689 52 689 59 690 C69 690 72 690 76 690 C78 690 139 691 153 691 L164 692 L164 691 L164 689 L161 689 C159 688 142 688 124 688 C88 687 60 686 53 685 C46 685 35 686 33 688 L31 690 L31 691 L32 692 L34 692 C36 691 39 690 43 690 Z M814 688 C815 687 813 679 807 665 C805 660 803 653 802 649 C801 645 799 640 798 639 C797 637 795 630 792 623 C790 616 786 606 784 600 C782 593 779 584 777 578 L775 568 L774 568 L773 569 L773 575 C773 579 774 585 776 590 C778 594 779 600 780 603 C781 605 783 611 784 615 C786 618 789 624 789 628 C790 631 791 634 791 635 L792 636 L787 637 C785 638 782 638 781 638 L780 637 L780 636 L780 635 L784 635 L787 636 L788 634 L788 633 L784 631 C780 629 778 629 770 629 L762 630 L761 631 L761 633 L767 633 C770 632 774 632 775 632 L777 633 L776 635 C775 637 776 638 776 640 C778 641 779 641 787 641 L796 640 L797 644 C797 646 798 649 799 652 L799 656 L798 657 C797 657 794 656 792 655 C788 653 786 653 778 653 L770 654 L770 656 L770 658 L772 657 C778 657 784 657 792 659 L800 660 L800 661 L800 662 L797 663 C796 663 792 663 787 661 C783 660 780 660 779 660 L779 661 L782 663 C786 666 793 667 798 666 C801 665 803 665 804 665 C805 666 807 674 807 680 L807 686 L791 686 L775 686 L774 684 C774 683 777 670 778 669 C779 669 779 668 779 666 L779 664 L778 664 L776 664 L774 669 L772 674 L771 673 C771 673 769 669 768 664 C765 656 765 653 769 644 L770 640 L769 639 L768 638 L767 638 C766 639 766 640 766 641 C766 642 765 644 765 645 L763 648 L762 646 C762 644 761 641 759 637 C756 631 756 631 758 626 C760 620 761 616 758 612 L757 609 L759 608 C759 608 763 608 767 608 L774 609 L774 607 L774 606 L772 605 C770 605 766 605 762 605 L755 606 L755 609 C756 620 756 623 755 624 L754 625 L752 618 C750 614 749 610 749 609 C749 607 751 600 752 599 C753 597 753 592 751 588 C751 586 750 584 750 583 L751 582 L756 582 C758 582 762 582 763 581 L765 581 L765 580 L764 579 L761 579 C760 579 755 579 752 579 L745 579 L744 578 C744 577 745 574 746 572 C747 569 747 568 746 564 C745 562 745 559 745 558 L745 556 L749 555 C751 555 759 554 765 554 C777 554 777 554 779 557 C783 564 786 572 788 578 L791 585 L797 584 C802 584 805 584 808 582 C817 577 821 571 824 560 L825 554 L826 554 L827 554 L827 561 C826 570 824 575 818 581 C813 586 804 590 799 590 C797 590 795 591 794 591 L793 593 L795 596 C797 600 797 600 804 600 C816 600 826 593 832 581 C834 576 836 563 836 553 L836 548 L807 548 C779 548 713 547 675 546 C665 545 637 545 613 544 C588 544 551 544 530 543 C509 542 466 542 434 542 C401 541 358 541 339 540 C319 540 274 540 239 539 C203 539 167 538 158 538 C148 538 130 537 118 537 C106 537 89 537 80 537 L65 537 L65 538 L65 540 L96 540 C124 541 166 542 172 542 C173 543 176 543 178 543 L182 543 L179 546 C177 548 176 552 175 554 L174 559 L172 553 C169 544 166 543 153 543 C142 544 140 544 138 551 L137 555 L136 555 L135 555 L134 552 C133 550 131 548 129 546 C126 543 126 543 116 543 C105 543 104 543 103 546 C102 547 100 548 93 548 C88 549 82 550 80 551 L77 552 L77 553 L77 554 L87 553 L98 553 L99 554 C99 555 99 557 98 559 C96 562 92 579 93 581 L94 583 L102 583 L109 583 L108 588 C108 593 108 596 108 604 C108 605 108 608 108 611 C108 613 108 616 108 618 L109 621 L101 621 C94 621 90 622 90 624 L90 625 L97 624 C100 624 106 624 109 624 L115 623 L116 620 C117 619 118 616 118 614 C120 610 119 606 117 604 C114 601 113 598 114 592 C115 588 115 585 114 583 L113 581 L106 580 L100 580 L100 576 C100 569 102 556 104 551 L106 547 L116 547 C126 547 127 547 129 549 C131 552 131 553 131 560 C130 570 130 571 123 573 L119 574 L119 576 L119 577 L120 577 C121 577 123 576 125 576 C127 575 131 574 133 574 L137 574 L137 572 C138 571 139 567 139 562 C140 557 141 552 142 550 C144 548 144 547 154 547 C163 547 165 547 166 549 C168 551 169 559 168 566 L167 572 L164 573 L161 573 L162 574 C162 575 165 575 169 575 L175 575 L177 563 C180 547 179 548 192 548 C203 549 203 549 205 552 C207 556 207 557 206 564 C205 569 205 572 203 572 L202 574 L204 574 C206 575 208 575 210 575 L212 575 L215 563 C218 547 217 548 230 548 C241 548 241 548 243 551 C246 557 245 569 241 573 L240 574 L245 574 L251 574 L252 570 C254 556 255 550 256 549 C257 548 259 548 268 548 C282 549 282 549 282 563 L282 573 L277 573 C268 575 263 576 261 577 L259 578 L260 579 C260 580 260 585 261 590 C261 601 261 601 265 603 C267 604 268 605 268 612 C268 621 267 623 263 623 L260 624 L260 625 L260 626 L267 626 C271 626 274 625 275 625 C275 624 276 622 278 611 C280 603 277 599 273 603 L271 604 L269 603 C268 602 268 600 268 597 C269 591 272 577 272 576 C273 576 276 576 280 575 C289 575 289 575 292 561 C293 556 294 551 294 550 C295 549 298 549 306 549 C315 549 316 549 318 552 C320 554 320 556 320 563 C320 570 320 571 318 573 L316 575 L322 575 L329 575 L330 563 C331 557 332 551 332 550 C333 549 336 549 344 549 L355 549 L356 552 C357 553 357 559 357 564 L358 574 L350 575 C338 576 337 578 339 595 L339 602 L341 602 C343 603 346 601 346 599 C346 598 347 593 347 588 L349 578 L356 577 C361 577 364 576 365 576 C365 575 366 570 367 564 C368 558 368 553 369 552 L369 550 L381 550 L392 550 L394 554 C395 556 395 560 395 567 L394 576 L399 576 L404 576 L405 568 C406 564 407 559 406 558 C406 557 406 554 407 553 L408 550 L419 550 L431 550 L432 555 C433 558 434 562 433 568 L433 577 L435 577 C440 579 443 572 443 560 C443 556 443 552 444 551 C445 550 452 550 462 551 C468 551 468 551 469 555 C470 558 471 563 471 568 L472 577 L475 577 C479 577 480 576 480 571 C480 570 480 568 481 568 C482 567 482 563 482 559 L482 551 L493 551 L505 551 L506 556 C507 558 508 564 508 568 C509 571 509 575 510 576 L510 578 L513 578 C517 578 518 576 518 568 C519 565 519 561 519 559 C520 557 520 554 520 553 L520 551 L531 551 L542 552 L544 556 C545 559 546 565 547 570 L547 579 L552 579 L557 579 L557 576 C557 575 557 569 558 563 L559 553 L563 552 C567 551 635 551 649 552 L656 552 L656 554 L656 555 L620 555 L584 555 L583 557 C583 558 583 559 584 560 C585 561 597 561 622 561 C642 561 658 562 659 562 C659 562 660 565 660 569 C660 573 661 580 663 588 C669 611 671 617 672 625 C673 629 675 633 675 635 C676 637 679 649 684 670 C686 679 689 687 689 687 C691 690 812 690 814 688 Z M671 687 C672 686 672 683 669 673 C667 666 666 660 665 660 L665 660 L663 662 C661 663 661 664 663 670 C664 674 665 679 665 681 L665 685 L650 685 C642 685 635 685 634 684 L632 684 L632 681 C632 679 633 676 634 675 C635 672 635 665 634 659 C632 651 633 651 641 652 C647 653 648 653 649 652 C650 651 651 650 651 650 L651 649 L648 648 C646 647 641 647 637 646 L630 646 L630 652 L630 657 L628 658 L626 658 L625 651 C624 648 623 642 623 640 L622 635 L620 635 C617 635 616 638 618 646 C620 659 624 679 624 682 L625 684 L608 684 C599 684 591 684 591 683 C590 683 591 680 592 676 C593 672 593 666 593 661 L594 653 L602 652 L610 652 L610 651 L609 650 L601 649 C589 649 589 649 589 662 C589 668 589 673 588 673 L587 674 L586 673 C586 672 585 666 584 658 C583 651 581 642 581 640 C580 637 579 634 580 634 L580 634 L583 635 C585 637 586 638 586 643 C586 646 586 649 586 650 L586 651 L587 651 L588 651 L589 646 C590 642 590 639 589 635 C588 631 588 628 589 628 C589 628 594 627 599 627 C604 627 608 626 609 626 L609 625 L608 624 C607 622 587 620 585 621 L583 622 L584 624 C585 625 585 627 585 629 L585 632 L583 633 C581 633 581 633 580 626 C580 622 578 613 577 606 C575 599 574 592 574 591 L574 589 L583 589 L591 589 L591 580 C590 575 590 569 589 568 L588 565 L586 566 L585 566 L586 576 L586 586 L579 586 C568 586 567 588 570 602 C573 611 575 623 576 632 C576 636 578 649 580 661 C582 673 584 683 583 683 C583 685 551 684 550 683 C549 682 550 680 551 675 C553 671 553 668 553 662 L553 654 L561 653 C565 653 569 653 570 652 L571 652 L570 650 C568 648 547 648 545 650 C541 654 540 664 543 679 L543 683 L520 683 L498 683 L498 678 C498 676 499 672 499 671 C499 669 500 665 500 662 L500 657 L499 656 L498 656 L497 658 C497 659 497 662 497 664 C497 665 497 667 496 668 L495 670 L494 668 C493 667 493 665 493 663 C493 659 495 647 497 644 C497 643 498 639 498 635 L499 627 L495 626 C488 626 483 632 486 639 C486 641 487 646 487 650 C488 654 489 662 490 667 C490 673 491 679 491 681 L491 684 L444 684 C419 683 366 682 327 682 C288 681 240 681 220 680 C200 680 179 680 174 679 L165 679 L165 672 C166 669 167 664 168 662 C168 660 169 657 169 656 C169 654 170 649 171 645 C173 635 173 625 171 623 C170 622 168 622 167 623 L164 623 L164 634 C164 640 164 647 164 650 C164 654 164 657 163 659 C161 663 159 673 159 678 L159 681 L162 682 C172 684 320 687 528 688 C590 688 641 688 641 689 C642 690 670 689 671 687 Z M534 663 L536 662 L536 660 L536 658 L529 657 L523 657 L523 658 L523 659 L524 659 L525 659 L525 660 L525 661 L519 661 C514 660 512 660 511 658 L510 657 L507 659 C504 662 505 663 510 664 C516 665 532 664 534 663 Z M447 659 C446 659 444 658 442 658 L438 657 L438 655 L438 654 L441 653 C442 653 451 653 461 653 L478 653 L478 651 L477 650 L467 649 L456 649 L456 646 C456 645 457 643 458 641 C459 639 459 638 458 635 C457 631 457 630 459 629 L460 627 L459 627 C459 626 457 626 454 626 C450 626 449 626 447 629 C445 631 445 632 446 641 L446 650 L432 649 L418 649 L418 650 C418 652 422 655 426 656 L430 656 L430 655 C431 654 432 654 433 654 L435 654 L435 656 L435 659 L432 659 L429 659 L437 660 C442 660 446 660 447 660 L448 660 L447 659 Z M482 659 L483 657 L482 656 C482 655 480 655 478 656 C476 657 470 657 466 658 C461 658 456 658 455 659 L454 659 L454 660 C455 661 460 661 467 661 C478 661 480 661 482 659 Z M293 658 L293 658 L292 657 C292 657 272 656 248 656 C191 655 182 654 178 652 C174 650 173 650 173 654 C173 658 174 658 223 658 C248 658 270 658 273 659 C276 660 292 659 293 658 Z M364 658 L364 657 L353 657 C347 656 332 656 320 656 L298 656 L298 657 C299 659 303 660 334 660 L363 660 L364 658 Z M158 656 L160 656 L159 655 C158 654 153 653 144 653 L131 653 L130 650 C130 649 131 643 132 638 C133 632 133 628 132 626 L131 623 L127 622 C125 622 122 622 121 622 L120 623 L121 624 C122 625 124 626 126 627 L129 627 L129 633 C128 636 128 639 128 640 L127 640 L126 640 C126 639 125 637 125 635 L124 632 L122 632 L121 632 L121 633 C121 634 122 638 122 642 C123 647 124 651 124 652 L123 653 L107 652 C98 652 90 652 89 651 C87 651 85 651 83 651 L80 651 L80 645 C81 642 81 638 82 637 C82 636 83 634 83 633 L84 630 L81 628 C78 627 78 626 78 622 C78 619 79 615 80 612 C81 608 82 606 81 605 L80 603 L78 603 C77 603 76 604 76 605 C75 607 71 622 70 626 L70 629 L73 630 C75 630 77 631 77 631 C77 632 77 635 76 639 C75 643 74 648 74 650 L74 654 L81 655 C87 656 98 657 123 657 C141 657 157 657 158 656 Z M404 654 C405 653 408 652 409 652 C412 652 413 651 415 645 C417 638 418 628 416 626 C414 624 410 625 407 627 C405 629 405 629 406 638 C407 644 407 648 407 649 C406 650 404 650 401 649 C396 649 393 649 382 648 L375 648 L375 646 C375 645 376 641 376 639 C377 636 377 632 377 630 L377 625 L372 625 C367 625 365 626 365 629 L365 631 L369 631 L372 630 L373 633 C374 634 373 637 372 640 L371 645 L370 644 C369 644 369 642 369 639 L369 635 L368 635 C367 635 366 638 366 642 L365 648 L350 648 L335 648 L334 645 C334 643 335 640 335 638 C337 632 337 627 336 625 C334 624 329 624 327 625 C325 627 325 628 325 638 L325 650 L328 650 C329 651 343 652 359 652 C390 653 392 653 396 655 C400 656 403 656 404 654 Z M536 648 C537 645 539 640 539 637 L540 631 L551 631 C560 631 564 631 564 632 L565 633 L564 635 C562 636 558 636 553 634 C548 633 545 633 546 636 C547 638 564 641 567 639 C568 638 571 632 570 631 C570 630 569 629 567 629 C563 626 529 626 527 628 C525 630 525 635 526 642 C527 644 528 648 528 649 C528 652 531 655 533 655 C534 655 535 652 536 648 Z M319 650 L321 650 L321 649 L320 648 L308 647 C302 647 296 647 295 647 L293 647 L293 645 C293 643 293 641 294 640 C295 638 295 634 296 631 L296 624 L292 624 C289 624 287 624 286 625 C286 625 285 630 285 636 C284 641 283 646 283 647 C282 647 276 647 270 647 C263 647 257 647 256 648 L255 649 L255 650 C256 650 267 651 281 651 C294 651 305 651 305 651 C306 652 315 651 319 650 Z M247 650 L253 650 L253 645 C253 643 253 638 254 636 C258 625 257 623 251 623 C245 623 244 624 244 636 L244 647 L230 646 C222 646 216 646 215 647 L214 648 L215 650 C217 651 220 651 229 650 C236 650 244 650 247 650 Z M212 646 C212 644 213 640 213 637 C214 633 215 630 214 629 C213 628 213 626 213 625 L213 623 L208 623 L204 624 L204 626 C204 630 204 637 202 644 L202 646 L190 646 C183 646 178 646 178 647 L177 648 L178 648 C178 649 186 649 195 649 L212 649 L212 646 Z M514 636 C513 634 513 627 513 620 L512 607 L516 607 L521 608 L521 611 C521 612 522 615 522 617 L523 621 L525 621 L527 620 L527 617 C527 615 527 613 526 611 L525 608 L527 607 C530 605 541 604 547 606 C549 606 555 607 558 607 L565 607 L565 606 C564 605 560 604 553 603 C547 603 542 602 541 602 L540 601 L541 598 C541 596 542 593 543 591 L544 588 L545 588 C546 588 551 589 556 589 L565 589 L565 585 L565 581 L562 580 L560 580 L561 582 L562 584 L561 585 C560 585 543 585 542 585 L541 584 L541 580 L542 577 L539 577 C536 577 536 578 533 583 C530 589 530 590 531 595 C531 599 532 602 531 602 C531 603 527 603 522 603 C511 603 509 604 506 609 C504 612 504 613 504 620 C505 625 506 628 507 629 C507 629 508 630 508 631 C508 632 508 633 509 634 C510 634 510 634 510 635 L510 636 L508 636 L506 637 L506 638 L506 639 L510 639 L514 639 L514 636 Z M194 634 L196 633 L196 632 L195 631 L193 632 L191 632 L191 630 L190 628 L188 628 C187 628 185 629 183 630 C182 631 180 632 179 632 L178 632 L178 633 L178 634 L179 634 C182 635 192 635 194 634 Z M156 632 C157 631 158 630 158 628 L158 626 L157 626 C157 626 156 627 155 628 L154 630 L152 628 C149 627 148 627 142 629 L137 630 L137 631 C137 634 138 634 146 634 C152 634 155 634 156 632 Z M115 632 L116 631 L114 630 C113 628 110 628 101 628 C94 629 89 629 88 630 L87 630 L89 632 C91 633 115 634 115 632 Z M433 631 C433 630 435 622 436 612 C437 608 437 604 438 604 C438 604 441 604 444 604 L449 604 L450 602 L450 601 L441 601 C433 601 433 601 429 605 C425 609 425 609 425 617 C425 622 426 627 426 629 L427 632 L430 632 C431 632 432 632 433 631 Z M472 628 C474 627 476 619 476 610 L476 605 L480 605 C483 605 485 604 486 604 L486 603 L485 602 C484 601 481 601 477 602 C471 602 470 603 468 605 C465 608 465 609 465 618 C465 624 465 628 466 628 C466 629 467 629 472 628 Z M393 626 C394 624 397 612 397 607 L398 604 L404 603 L411 603 L410 601 C409 600 407 600 402 600 C395 600 393 601 389 605 C386 607 386 608 386 617 C386 622 386 626 387 626 C388 627 392 627 393 626 Z M142 625 C142 625 145 624 149 624 L155 624 L157 617 C160 607 160 606 155 603 C152 601 152 601 152 594 C153 591 154 587 154 585 C155 583 155 582 154 581 C153 580 152 579 152 578 C151 576 149 575 148 575 L146 575 L146 576 C145 577 145 582 145 588 C144 598 144 599 146 601 C147 602 149 604 150 606 C151 609 151 609 150 611 C149 613 148 615 148 616 C148 617 148 619 147 619 L147 621 L146 621 C144 621 138 624 138 625 L138 626 L139 626 C140 626 141 626 142 625 Z M316 618 C317 613 318 608 318 606 L319 602 L327 602 L334 602 L334 601 L333 600 L326 600 C316 600 312 601 309 606 C307 609 307 610 307 617 C307 622 307 625 307 626 C307 626 309 626 311 626 L314 626 L316 618 Z M354 624 C356 619 357 613 358 609 L358 604 L366 604 L374 604 L374 603 L374 602 L364 601 C349 601 347 603 347 617 L346 626 L350 626 L354 626 L354 624 Z M236 619 C237 615 237 610 237 607 L238 602 L236 601 L235 601 L235 603 C235 605 233 607 232 607 L231 607 L230 603 C229 600 229 598 230 592 C231 588 232 582 232 579 L232 574 L230 574 C230 574 227 575 225 575 L222 577 L222 582 C222 593 224 601 226 603 C227 605 228 607 228 611 C228 619 227 622 224 622 L222 623 L222 624 L222 625 L228 625 L235 625 L236 619 Z M197 614 C199 609 200 604 199 604 L199 603 L197 605 L196 606 L193 603 C191 600 191 600 193 586 C193 582 193 581 191 578 C189 576 188 575 187 575 L185 576 L184 580 C183 582 183 587 183 592 C183 599 184 600 186 602 C189 605 190 608 188 618 C188 620 187 623 188 623 C188 624 190 624 191 624 L195 624 L197 614 Z M782 616 C781 615 776 612 771 612 L768 612 L767 613 C767 614 767 616 767 617 L768 618 L775 618 L782 618 L782 616 Z M550 615 L551 614 L553 615 C554 617 556 617 559 616 L564 616 L564 614 C564 611 563 611 560 612 C558 613 557 613 555 612 C554 610 551 610 543 610 L533 609 L533 611 L533 613 L535 613 C535 614 538 614 541 614 L545 614 L546 616 L546 617 L548 617 L550 617 L550 615 Z M102 608 L103 607 L102 606 C101 605 98 604 93 604 L86 604 L86 606 L86 608 L88 608 C89 608 90 609 91 610 C92 611 100 611 102 608 Z M461 603 C462 601 464 591 464 583 L465 576 L462 576 C460 576 458 577 457 579 C454 582 454 583 454 591 C454 595 454 600 455 601 L456 604 L458 604 C459 604 460 603 461 603 Z M501 603 C501 602 502 597 502 591 C502 585 503 580 503 579 L504 577 L501 577 C499 577 498 578 496 580 C495 581 494 583 493 585 C491 587 491 587 492 595 C493 599 493 603 494 603 C494 604 500 604 501 603 Z M307 599 C307 597 307 595 308 594 C309 593 309 588 310 583 L310 575 L307 575 C305 575 303 575 302 576 L300 577 L300 589 C300 602 301 603 305 603 L307 603 L307 599 Z M385 596 C386 592 387 586 387 582 L388 576 L384 576 C382 576 380 577 378 579 C376 581 376 582 376 591 C377 597 377 602 378 602 C378 603 379 603 381 603 L384 603 L385 596 Z M423 600 C424 598 425 592 425 588 C426 583 427 578 427 577 L428 576 L424 576 C418 576 414 582 414 590 C415 592 415 596 416 599 L416 603 L419 603 L422 603 L423 600 Z M133 588 L137 588 L137 586 L137 585 L134 585 L132 585 L133 583 L133 580 L130 580 L126 580 L126 583 L125 585 L122 585 L120 585 L120 586 L120 587 L122 588 C125 589 128 589 133 588 Z M66 565 C70 551 74 548 83 546 C86 545 91 545 94 545 L100 545 L100 544 L100 543 L88 543 C67 544 64 545 64 550 L64 552 L65 552 L66 553 L65 558 C64 561 62 563 62 564 L61 564 L61 550 C61 542 61 535 60 534 C60 533 59 530 58 527 L57 521 L55 521 L54 521 L54 522 C54 523 54 525 55 528 C55 530 56 540 57 550 C57 562 58 570 59 572 L60 575 L61 575 C62 575 64 570 66 565 Z M820 541 C823 534 825 513 823 511 L822 511 L820 513 C817 515 814 542 816 544 C817 546 818 544 820 541 Z M757 542 C759 539 762 522 762 515 C762 513 762 511 761 510 L760 510 L758 512 C757 513 756 516 755 523 C754 527 754 533 753 535 C753 537 753 540 753 541 L754 544 L755 544 C756 544 757 543 757 542 Z M770 541 C771 540 773 533 774 526 C775 514 775 513 774 511 L772 510 L771 511 C770 512 769 516 768 521 C767 526 766 532 766 535 C765 538 765 540 766 542 C767 545 769 545 770 541 Z M783 541 C784 538 787 521 787 516 L787 513 L785 512 C783 511 782 513 780 525 C777 540 777 544 781 544 L782 544 L783 541 Z M809 536 C811 526 812 514 811 513 L810 512 L808 513 C807 513 806 516 806 520 C805 523 804 529 803 532 C802 539 802 542 804 543 L806 544 L807 543 C807 542 808 539 809 536 Z M734 539 C735 535 737 513 736 510 C735 507 724 505 720 508 C719 509 717 519 716 532 L716 542 L718 542 C719 542 720 541 721 540 C722 538 724 522 724 515 L724 509 L728 509 L732 509 L732 511 C731 512 730 519 729 526 C728 537 728 540 729 542 L730 543 L731 543 C732 543 733 541 734 539 Z M745 542 C746 540 748 532 749 521 C750 513 750 512 749 510 L747 509 L746 511 C743 514 740 540 742 542 C743 543 744 543 745 542 Z M795 541 C797 538 799 525 799 518 L799 512 L797 512 L795 513 L794 518 C793 520 792 526 791 531 C791 535 790 540 790 541 L791 543 L793 543 C793 543 794 542 795 541 Z M683 540 C684 538 686 522 686 514 L686 509 L684 509 C683 509 682 510 681 511 C680 513 678 536 678 539 L679 542 L680 542 C681 542 682 541 683 540 Z M696 538 C697 536 697 530 698 522 L698 509 L697 509 C694 509 693 512 692 522 C691 528 691 534 690 535 C690 538 691 542 693 542 L694 542 L696 538 Z M708 540 C709 538 712 513 712 512 L711 510 L709 510 C706 510 705 512 705 522 C704 526 704 532 703 534 C703 539 704 542 707 542 L708 542 L708 540 Z M571 523 C571 517 571 510 571 509 L570 506 L569 506 C565 506 564 510 564 523 C563 535 563 536 565 539 L567 541 L569 538 C569 537 570 530 571 523 Z M581 539 C582 537 584 510 583 508 L583 506 L582 506 C579 506 578 509 577 523 C577 534 577 538 578 539 C579 540 580 541 580 541 L581 541 L581 539 Z M594 539 C595 535 597 510 597 509 L596 507 L594 507 C591 507 590 509 590 523 C589 536 590 541 593 541 L594 541 L594 539 Z M607 539 C608 538 608 531 608 522 L609 508 L607 507 L605 507 L604 509 C603 510 603 517 602 523 C601 534 602 536 603 538 C605 542 606 542 607 539 Z M619 540 C620 539 622 527 623 516 L623 508 L621 508 C620 507 618 508 617 508 C616 509 614 536 616 539 C617 541 619 542 619 540 Z M633 537 C634 535 634 528 635 521 L635 508 L633 508 C631 508 630 508 630 509 C628 511 627 536 628 538 L629 541 L630 541 L632 541 L633 537 Z M645 539 C646 537 648 525 648 516 L648 509 L645 508 L643 508 L643 509 C642 510 642 517 641 523 C640 533 640 537 641 538 C642 541 644 542 645 539 Z M671 535 C673 527 674 511 673 510 L673 508 L671 508 C669 508 667 513 666 523 C665 534 666 539 667 540 L668 541 L670 540 C670 539 671 537 671 535 Z M659 536 C659 534 659 527 659 521 L660 509 L658 509 C657 509 656 510 655 511 C654 514 652 534 653 537 L654 540 L656 540 L658 540 L659 536 Z M494 522 C494 514 494 507 494 506 L494 505 L491 505 C490 505 489 505 489 506 C488 506 488 513 487 520 C487 534 487 534 489 537 L491 539 L492 538 C493 538 493 531 494 522 Z M505 537 C506 536 506 528 506 520 L507 506 L505 505 C501 504 500 508 500 521 C500 531 500 535 502 537 C503 538 504 539 504 539 L505 539 L505 537 Z M519 522 L519 506 L518 506 L516 505 L515 507 C514 508 513 513 513 521 C513 532 513 534 514 537 L516 539 L517 538 C518 537 519 531 519 522 Z M531 534 C531 531 532 524 532 518 L533 507 L530 506 C529 506 528 506 527 507 C527 508 526 514 526 521 C525 532 525 534 527 536 C527 538 529 539 529 539 L530 539 L531 534 Z M543 538 C544 537 544 529 545 521 L545 506 L543 506 L540 506 L540 508 C539 509 539 515 539 522 C538 534 539 539 542 539 L543 539 L543 538 Z M557 532 C558 529 558 521 558 516 L558 507 L556 506 L554 506 L553 508 C553 509 552 516 551 523 C551 536 551 539 555 539 L556 539 L557 532 Z M455 522 L455 505 L453 505 L450 505 L450 507 C450 510 449 515 449 526 C448 532 448 533 450 535 C451 537 453 538 454 538 L455 538 L455 522 Z M467 532 C468 528 468 521 468 516 L469 506 L466 506 L463 506 L462 519 C462 531 462 534 463 536 C464 537 465 538 466 538 L467 538 L467 532 Z M480 529 C481 524 481 516 481 513 L481 506 L478 505 L476 505 L476 510 C474 527 474 533 476 535 C476 537 478 538 479 538 L480 538 L480 529 Z M404 535 C405 534 405 527 405 519 L405 505 L402 505 L399 505 L398 519 C398 533 398 534 400 535 C401 536 403 537 403 537 L404 537 L404 535 Z M417 520 L417 505 L415 504 C413 503 412 505 411 518 C411 531 412 534 414 536 C417 538 417 535 417 520 Z M430 525 C431 510 431 506 429 505 C428 504 427 504 426 504 L424 505 L424 519 C424 531 424 534 426 535 L427 537 L428 536 C429 536 429 531 430 525 Z M442 534 C443 533 443 526 443 519 L443 505 L441 505 C438 503 437 506 437 519 C436 530 436 533 438 535 C438 536 439 537 440 537 L441 537 L442 534 Z M340 531 C341 507 341 505 339 504 C339 503 337 503 336 504 L334 504 L334 518 C335 529 336 533 337 534 C338 535 339 536 339 536 L340 536 L340 531 Z M354 519 L354 504 L352 504 C348 503 347 504 347 518 C347 531 347 532 349 534 L351 536 L352 535 C353 535 353 528 354 519 Z M379 533 C379 531 379 524 379 517 L379 505 L376 505 L374 505 L373 518 C373 530 373 533 375 534 C376 535 377 536 377 536 L378 536 L379 533 Z M391 523 C392 515 392 508 392 507 L392 504 L389 503 L387 503 L387 505 C386 506 386 513 386 520 C386 533 386 536 390 536 L391 536 L391 523 Z M328 519 L328 504 L325 503 L323 503 L322 505 C322 506 321 512 321 519 C321 531 321 532 323 534 C325 534 326 535 326 535 L328 534 L328 519 Z M366 519 L366 504 L363 504 L361 505 L360 518 C360 533 361 535 364 535 L366 534 L366 519 Z M251 519 C251 506 250 504 249 503 L247 502 L245 503 C244 504 244 506 244 518 C245 529 245 532 247 533 C248 533 249 534 249 534 L251 533 L251 519 Z M263 518 C263 503 262 501 259 503 C257 504 257 505 257 518 C258 531 259 534 262 534 L264 533 L263 518 Z M276 518 L276 503 L273 503 L271 504 L271 517 C271 531 271 534 275 534 L276 534 L276 518 Z M290 519 C289 511 289 504 288 504 C288 503 287 503 286 503 L284 503 L284 505 C283 507 283 530 284 532 C285 533 286 534 288 534 L290 534 L290 519 Z M302 519 L302 504 L299 504 L297 504 L296 513 C296 517 296 524 297 528 L297 534 L300 534 L302 534 L302 519 Z M315 519 L315 504 L312 504 L310 504 L309 517 C309 524 309 531 309 532 L310 534 L312 534 L315 534 L315 519 Z M173 518 C173 506 173 503 171 502 L170 501 L168 502 C166 504 167 528 170 532 L171 533 L172 533 L174 532 L173 518 Z M200 532 C200 531 200 524 199 516 L199 503 L196 503 L194 503 L194 516 C194 529 195 533 198 533 L199 533 L200 532 Z M213 523 C213 518 213 511 212 508 L211 503 L209 503 L207 503 L207 516 C207 530 207 533 211 533 L213 532 L213 523 Z M225 532 C226 532 225 525 225 517 L225 503 L222 503 L220 503 L220 516 C220 523 220 530 220 531 L221 533 L223 533 C224 533 225 533 225 532 Z M238 518 C238 506 237 504 236 503 L234 502 L232 503 C231 505 231 506 232 518 C232 525 233 531 233 532 C234 532 235 533 236 533 L238 533 L238 518 Z M161 531 C162 529 161 502 159 501 C156 499 154 502 154 507 C154 517 156 530 157 531 C159 532 160 532 161 531 Z M187 530 C187 530 187 523 186 516 L186 503 L183 503 L181 503 L181 516 C181 529 182 532 185 532 L186 532 L187 530 Z M86 530 C86 529 85 522 85 515 C84 503 83 500 82 500 L80 499 L78 500 C77 501 77 503 78 513 C78 519 80 525 80 527 L82 531 L83 531 L85 531 L86 530 Z M98 530 C99 529 98 525 98 521 C97 517 97 510 96 507 L96 500 L93 500 L91 500 L91 509 C91 517 92 528 94 530 C94 531 95 531 96 531 L98 531 L98 530 Z M111 530 C111 529 111 522 110 514 L108 501 L106 500 L104 500 L103 502 C102 504 105 528 106 530 C107 530 108 531 109 531 L110 531 L111 530 Z M123 523 C123 518 122 511 122 508 L122 501 L119 500 L117 500 L116 502 C115 504 117 526 118 530 L119 531 L121 531 L123 531 L123 523 Z M135 530 C136 528 135 504 134 502 C133 500 131 499 129 501 C128 503 128 506 129 515 C130 528 131 531 133 531 L135 531 L135 530 Z M149 529 C149 528 148 521 148 514 C147 504 146 501 145 500 L144 500 L142 502 C141 503 141 506 142 511 C142 520 143 527 144 529 L144 531 L147 531 L149 531 L149 529 Z M822 501 L822 495 L821 495 C817 493 659 490 657 491 L655 492 L655 499 L655 506 L684 505 L713 505 L713 501 L713 498 L711 498 L709 498 L709 500 L709 502 L706 502 C704 502 700 502 697 502 C694 501 691 501 690 501 L688 501 L688 500 L688 499 L687 499 L685 499 L685 500 L684 502 L676 502 L669 501 L668 500 L668 499 L666 500 C666 501 664 501 663 501 L662 500 L662 498 L663 496 L661 495 L660 495 L660 494 L660 493 L670 494 C676 494 695 494 714 494 C732 495 763 495 782 496 L818 496 L818 498 L818 499 L816 499 C814 499 813 500 812 501 C810 503 804 503 803 501 L803 500 L798 500 L793 500 L792 502 L792 503 L782 503 C774 502 772 502 770 500 C769 499 768 498 767 498 C766 498 764 503 764 504 L765 506 L791 506 C813 506 817 506 818 508 L819 509 L820 508 C821 508 821 504 822 501 Z M825 488 C829 486 831 480 831 471 C832 466 833 454 834 444 C835 433 836 421 837 417 C837 413 838 406 838 402 C839 398 840 387 840 378 C841 369 842 356 843 350 C847 309 852 244 854 221 C854 216 855 206 856 199 C856 191 857 183 857 180 C857 175 857 174 853 171 C849 167 852 167 798 165 C783 164 768 164 764 164 C759 163 738 163 716 162 C676 162 676 162 672 166 C669 169 668 171 668 173 C668 174 667 187 666 200 C665 213 664 234 663 246 C662 257 661 271 661 278 C660 293 659 301 658 322 C656 351 654 387 654 393 C653 395 653 403 653 410 C652 417 652 425 651 429 C651 437 650 444 649 463 C649 480 649 480 652 483 C654 486 655 486 664 487 C677 488 730 489 780 489 C815 489 823 489 825 488 Z M623 484 C624 483 626 481 628 478 C630 473 631 465 633 424 C640 283 640 292 643 247 C644 230 645 206 646 193 C646 167 646 165 639 163 C633 161 581 159 430 157 C404 157 376 157 368 156 C342 156 245 154 214 155 C183 155 182 155 178 161 C177 163 177 167 177 215 C177 261 177 296 180 419 C180 455 181 468 184 473 C187 480 188 480 228 480 C282 481 322 482 367 482 C464 484 506 484 542 485 C596 486 619 486 623 484 Z M156 478 C157 478 159 476 159 474 C161 472 161 468 161 412 C160 379 160 351 159 350 C159 348 159 330 159 310 C158 290 158 269 157 265 C157 260 157 235 156 210 C156 158 156 158 149 155 C146 153 143 153 108 153 C67 153 68 153 64 159 C63 162 63 166 63 194 C64 211 64 231 64 237 C65 243 65 261 65 277 C66 292 66 311 67 319 C67 326 68 353 69 378 C70 422 71 453 73 464 C73 471 76 475 81 477 C83 477 97 478 112 479 C127 479 140 479 140 480 C141 480 154 479 156 478 Z M872 157 L872 155 L869 154 C867 153 864 151 863 150 C863 148 860 146 858 145 C856 144 853 142 852 141 C851 140 848 139 847 139 L845 139 L846 140 C848 142 847 143 844 144 C843 145 839 145 835 144 C831 144 820 144 812 144 C799 143 796 143 794 142 L793 140 L793 139 C794 138 812 139 819 139 L824 140 L824 138 L823 137 L809 136 C796 136 794 136 793 138 C793 138 789 140 786 141 C779 142 758 142 753 141 C750 140 747 140 744 140 C742 140 740 140 740 139 L739 138 L740 137 C741 137 750 137 761 137 L781 137 L780 136 C780 135 776 135 771 134 C764 134 721 133 711 133 L707 133 L706 134 L706 135 L719 135 C726 136 733 136 734 137 L736 137 L736 138 L735 140 L729 139 C725 139 711 139 698 139 C620 137 617 137 607 137 C606 137 601 137 596 137 C591 136 576 136 561 136 C540 136 534 136 532 135 C531 134 530 133 529 134 C526 136 461 135 459 134 C457 133 456 133 454 134 C450 135 358 134 356 133 L354 132 L355 130 L355 127 L351 127 C349 126 342 126 335 126 L323 126 L323 127 C323 128 322 128 337 129 L350 130 L350 132 L350 134 L344 134 C341 134 337 133 336 132 C333 131 332 131 330 132 C328 133 318 133 298 133 C282 132 248 132 223 131 C198 131 174 131 169 131 C164 130 140 130 116 130 C90 130 70 129 69 129 C69 128 68 127 69 126 L69 124 L68 124 C67 124 64 125 61 127 C56 129 47 140 47 143 L47 145 L48 145 C49 145 51 143 53 141 C56 138 59 136 62 135 C65 134 79 134 116 134 C143 134 172 134 180 134 C187 135 221 135 254 135 C287 136 328 136 345 137 C362 137 403 138 435 138 C567 140 595 140 606 141 C612 141 637 141 661 142 C685 143 712 143 721 144 C730 144 750 145 765 146 C819 148 843 149 850 150 C857 151 866 154 869 158 C870 158 871 159 871 159 L872 159 L872 157 Z M280 128 L282 126 L280 126 C280 125 277 125 275 125 L271 125 L271 126 C271 127 277 130 278 130 C278 130 279 129 280 128 Z M450 129 L449 128 L421 127 L393 127 L393 128 L393 129 L399 129 C403 129 416 130 428 130 L450 130 L450 129 Z M317 128 L318 128 L318 127 L318 126 L315 126 C314 126 311 126 309 125 C307 124 305 124 304 125 C304 126 301 126 299 126 C297 125 295 125 294 125 C293 125 290 125 288 125 L283 125 L283 126 L283 127 L288 128 C292 128 310 129 317 128 Z M161 126 C164 126 166 126 166 125 L167 124 L165 124 C162 123 75 122 73 122 L71 123 L72 124 C72 125 88 125 107 125 C126 125 144 126 146 126 C149 126 152 127 153 126 C154 126 158 126 161 126 Z M253 126 L253 125 L249 125 C247 125 241 125 236 124 C231 124 227 124 226 124 L226 125 L228 125 C234 127 235 127 243 127 C248 127 252 126 253 126 Z M265 126 C264 124 259 124 257 125 L255 127 L260 127 L265 127 L265 126 Z M847 121 C846 119 834 117 815 116 C797 116 796 116 794 113 C792 112 788 109 785 108 C782 106 778 104 777 103 L774 102 L772 103 C770 105 769 105 767 104 C766 102 762 102 759 103 C758 104 756 104 754 103 C752 102 751 102 749 103 C746 104 745 104 742 102 C740 101 739 101 737 102 C735 103 731 103 731 102 C730 101 726 101 724 102 C723 103 721 103 719 101 L715 100 L713 101 C711 103 709 103 707 101 L705 100 L702 101 C698 103 698 103 696 102 C693 100 691 100 689 102 L687 103 L684 102 C680 100 679 100 677 102 L675 103 L673 102 C669 100 666 100 664 101 L663 103 L660 101 C657 100 656 100 653 101 C650 102 649 102 646 100 L643 99 L641 100 C639 102 638 102 636 101 C634 99 631 99 629 101 L628 102 L628 103 C629 104 633 106 636 107 C638 108 639 108 641 106 L643 105 L645 106 C646 108 648 108 652 108 C654 108 661 108 667 108 L678 109 L678 107 L677 105 L678 105 C679 105 681 106 682 107 C683 108 685 109 686 109 L690 109 L688 108 L687 108 L687 107 C687 106 688 106 689 105 L691 104 L692 105 L694 106 L692 107 L690 108 L696 110 C699 110 703 111 704 110 L705 110 L705 109 L705 108 L702 107 L700 106 L702 105 L704 104 L705 106 C708 109 710 111 713 111 L716 111 L716 110 L716 108 L714 108 L711 108 L711 107 L711 106 L713 106 C716 105 718 106 719 109 C721 110 722 111 725 111 L729 111 L729 110 L729 109 L726 109 L723 108 L724 107 C724 106 732 106 746 106 C758 107 770 107 773 107 C776 107 778 108 779 108 L780 110 L779 110 C779 110 773 110 766 110 C758 109 748 109 742 109 L732 108 L732 109 C732 109 732 110 733 110 C734 111 752 112 773 113 C784 113 788 113 789 114 L790 116 L776 116 C769 116 754 116 745 115 C735 115 719 114 711 114 C702 113 693 112 691 112 C689 111 687 111 686 112 C685 112 682 113 678 112 C661 111 585 109 552 109 L515 110 L514 111 L514 112 L543 112 C559 112 580 112 591 112 C602 113 626 113 645 114 C664 115 694 116 713 117 C749 118 759 119 788 119 C817 120 835 121 836 122 C836 122 839 122 842 122 L847 122 L847 121 Z M487 110 L487 109 L483 109 C480 109 455 109 427 108 L375 108 L376 109 C377 110 386 110 450 111 L487 111 L487 110 Z M314 109 L313 108 L289 107 L266 107 L266 108 C267 108 290 110 304 110 L314 110 L314 109 Z M371 109 L371 108 L362 108 C357 108 346 108 336 107 L318 107 L318 108 L318 109 L322 109 C325 110 337 110 349 110 L371 110 L371 109 Z M238 108 L238 106 L237 106 C236 106 223 106 209 105 C174 105 139 104 111 103 C99 103 87 103 85 103 L80 104 L80 105 L80 106 L89 106 C94 107 117 107 141 107 C164 107 191 108 200 108 C208 108 221 109 227 109 L238 109 L238 108 Z M591 106 L592 105 L595 106 C598 107 603 107 604 105 L605 104 L607 105 C609 106 613 107 619 107 L628 107 L628 106 C628 104 622 98 620 98 C619 98 618 99 617 100 L615 102 L612 100 C609 97 607 97 605 100 L603 102 L601 100 C598 97 595 97 592 100 L590 102 L588 100 C587 99 585 98 584 98 L582 99 L581 101 C581 105 588 109 591 106 Z M130 100 L133 99 L134 100 C136 102 140 101 143 99 C144 97 146 96 146 96 L147 96 L147 98 L148 101 L151 101 C154 101 155 100 157 98 C159 96 160 95 160 93 L159 91 L157 91 C155 91 153 92 152 94 C151 95 150 96 150 96 L149 96 L148 94 L147 91 L145 91 C144 91 142 92 140 94 L136 97 L136 96 C135 96 135 95 135 94 L135 92 L134 91 C133 91 130 92 128 93 C126 95 124 96 123 96 C123 96 122 97 121 98 L120 99 L121 100 C123 101 127 101 130 100 Z M768 96 L768 95 L760 93 C749 92 728 92 728 93 L727 94 L728 95 C730 95 754 97 762 97 L768 97 L768 96 Z M722 94 L722 93 L717 92 C711 91 701 91 691 93 L686 93 L687 94 C687 94 696 95 705 95 L722 95 L722 94 Z M683 93 C683 93 681 93 681 93 L680 94 L682 94 L685 94 L683 93 Z M125 70 C125 70 128 68 131 66 C138 61 138 60 136 53 L135 49 L133 49 L132 49 L132 51 C131 53 131 56 132 58 L133 59 L133 60 C132 61 123 67 122 67 L121 67 L121 64 L121 62 L119 61 C119 61 118 61 117 61 C117 62 117 73 117 74 L118 75 L121 73 C122 71 124 70 125 70 Z M749 60 C749 49 748 46 741 41 C737 39 735 39 721 38 C712 38 692 37 676 37 C660 37 645 37 644 37 C643 36 626 36 608 36 C590 35 554 35 530 34 C505 33 446 32 400 31 C353 31 297 30 277 29 C256 29 214 29 183 29 C128 29 128 29 124 32 C118 36 116 39 116 46 L117 51 L118 51 L119 51 L120 46 C120 40 123 36 126 35 C127 35 128 34 129 33 C130 33 132 32 133 32 L136 32 L136 33 C136 34 134 35 133 35 C132 35 130 35 129 36 L128 36 L129 38 C132 40 135 39 137 37 C138 36 140 35 144 35 L149 35 L149 37 C149 38 148 40 147 42 C146 43 145 47 143 49 L141 55 L142 55 L143 56 L144 55 C145 54 146 52 146 49 C147 46 149 44 152 41 C161 34 161 34 187 35 C199 35 221 35 235 36 C249 36 278 36 299 36 C320 37 343 37 349 37 C355 37 361 37 362 37 C363 37 375 37 390 37 C410 38 417 38 418 39 L420 40 L421 39 C422 39 447 39 518 39 C529 39 533 40 534 41 L536 42 L537 41 C539 40 542 40 551 40 C558 41 571 41 580 42 C589 42 617 42 643 42 L689 42 L689 44 C690 45 691 47 693 48 C699 51 705 56 705 59 L705 61 L685 61 C674 60 648 60 627 59 C581 58 555 57 535 57 C527 56 495 56 463 55 C431 54 384 54 359 53 C333 52 295 52 275 52 C254 51 223 51 205 50 C167 50 163 50 157 54 L153 57 L154 58 C154 58 157 57 160 57 C164 55 168 55 186 55 C197 56 220 56 236 56 C251 56 276 57 290 57 C303 57 335 58 360 58 C385 59 414 59 424 60 C464 61 510 62 513 62 C516 62 538 62 566 64 C586 64 669 66 696 66 C726 66 736 67 742 70 L746 72 L747 71 C748 70 748 66 749 60 Z M711 29 L712 29 L711 27 C710 26 702 26 670 26 C648 26 628 26 626 27 L622 28 L624 28 C625 28 644 29 668 29 C691 29 710 30 710 30 C710 30 711 30 711 29 Z M597 27 L597 25 L586 25 C566 24 510 23 508 24 L507 24 L509 25 C510 25 520 26 531 26 C542 26 557 27 566 27 C574 27 584 28 589 28 L597 28 L597 27 Z M35 331 L35 329 L36 330 C36 330 36 332 36 332 L35 334 L35 331 Z M33 275 L33 274 L34 275 L34 276 L34 277 L33 277 L33 275 Z M598 15 C591 15 585 14 584 14 L584 13 L610 13 L636 14 L635 15 L635 16 L623 16 C617 16 606 15 598 15 Z M655 15 L655 14 L657 14 L659 14 L659 15 L659 16 L657 16 L655 16 L655 15 Z M734 685 C732 684 733 679 735 673 C737 667 737 663 735 661 L734 659 L735 657 C737 656 742 656 745 657 L746 659 L745 661 L743 664 L743 665 C744 665 747 665 751 665 L758 666 L758 664 L758 663 L754 662 L751 662 L751 661 L751 659 L753 659 L754 658 L754 657 C754 655 748 653 739 653 C733 652 728 652 728 651 L727 650 L728 647 C729 645 729 642 730 640 L730 637 L729 637 L728 637 L728 634 L729 632 L734 632 C736 632 739 632 739 633 L739 633 L738 635 C737 636 736 638 736 639 L736 640 L744 640 L752 640 L752 639 C752 639 750 637 748 635 C745 633 743 631 743 630 L743 629 L735 629 C730 628 725 628 724 628 L721 629 L721 626 C721 624 721 621 722 618 C722 615 722 614 721 612 L719 609 L720 609 C723 606 731 611 730 616 L729 618 L737 618 L744 618 L744 617 C744 616 741 615 738 614 L733 613 L732 611 L732 609 L733 609 C733 609 734 610 735 610 C736 611 738 612 739 611 L741 611 L741 609 C741 607 735 605 725 605 L716 606 L715 609 C715 611 715 613 716 614 C718 615 719 621 717 622 L716 622 L714 617 C711 612 712 604 714 599 C716 595 716 593 714 589 C713 587 713 584 713 584 L714 582 L720 582 C724 582 727 582 728 581 L729 580 L729 579 C728 579 723 579 717 579 L706 579 L706 577 C709 568 709 567 708 562 L706 556 L707 555 C708 554 711 554 714 554 C716 554 721 554 723 553 C725 553 728 553 729 554 C730 555 733 564 735 574 C736 579 738 586 739 590 C741 593 743 600 744 604 C744 609 746 614 747 616 C748 618 750 623 750 626 C751 630 752 634 754 636 C757 640 759 645 759 653 C760 656 761 660 762 661 C765 666 767 674 767 680 L768 686 L751 686 C742 686 734 686 734 685 Z M692 683 C692 682 693 678 697 668 C698 666 698 664 697 662 C696 660 696 658 696 657 L696 656 L703 656 L711 656 L711 655 L711 653 L702 653 C691 653 689 654 691 658 C691 660 692 661 693 661 C695 662 694 666 692 670 C691 672 690 674 690 674 L689 674 L688 670 C686 664 687 648 689 645 C690 642 690 638 688 633 L688 631 L691 631 C692 631 696 632 699 632 C702 633 705 634 706 633 L707 633 L706 632 C705 629 700 628 692 628 L685 629 L685 634 C685 636 685 640 685 642 C685 644 685 646 684 646 L683 647 L682 647 C682 646 681 642 681 636 C681 629 681 626 683 623 C684 620 684 618 684 616 C683 614 683 611 683 610 L683 608 L690 608 L698 608 L698 607 L698 605 L697 605 C697 605 693 605 688 604 C683 604 679 604 678 605 L677 606 L678 610 C680 616 680 620 679 623 L677 624 L676 624 C675 623 673 606 674 603 C674 602 675 599 676 597 C678 594 678 591 676 587 C675 586 675 584 675 583 L676 582 L682 581 C686 581 689 581 690 580 L692 580 L686 579 C682 579 678 579 676 579 L672 580 L671 582 C671 583 672 586 673 588 C673 591 674 594 674 595 L673 597 L671 597 C670 597 669 594 668 590 C666 585 666 585 669 577 C672 569 672 569 671 562 C670 559 669 555 670 555 C670 554 675 554 681 554 C692 554 692 554 694 559 C695 561 697 566 697 569 C699 583 700 587 702 593 C704 597 705 602 706 605 C706 607 707 612 709 616 C711 620 712 626 713 629 C713 633 715 636 715 637 C717 639 718 645 720 653 C720 655 721 658 722 660 C724 664 727 674 727 679 L727 685 L710 685 L693 685 L692 683 Z M720 664 L720 663 L716 661 C710 658 704 659 704 663 C704 666 705 666 712 666 L719 666 L720 664 Z M728 665 C727 662 725 659 725 659 C724 658 724 657 724 656 L724 654 L727 656 C732 658 734 664 733 668 L732 671 L731 671 L730 671 L728 665 Z M723 646 C722 646 722 644 721 642 C720 639 719 637 718 636 C718 634 717 633 717 632 L717 630 L718 630 C718 630 720 631 722 632 C725 634 725 634 725 640 C725 643 725 646 724 646 L723 647 L723 646 Z M271 617 C271 616 271 614 272 612 L272 609 L273 609 L274 609 L274 612 C274 613 273 615 273 617 L271 619 L271 617 Z M112 612 L112 609 L114 609 L115 609 L115 610 C115 610 115 612 114 613 L114 615 L113 615 L112 615 L112 612 Z M708 598 C705 589 703 582 703 580 L704 579 L707 581 C708 583 710 586 711 589 C712 593 712 593 711 597 L709 601 L708 598 Z M743 589 C741 584 739 577 738 573 C738 569 736 564 736 562 C735 559 734 556 733 554 L732 551 L738 551 L743 551 L742 553 C742 554 741 558 742 567 C742 569 742 573 742 575 C741 579 742 580 744 582 C747 585 749 590 749 595 L749 598 L748 598 L746 598 L743 589 Z M801 595 L801 594 L802 594 C803 594 805 593 809 591 C816 588 825 579 827 574 C828 572 830 570 830 570 L831 570 L831 574 C829 582 822 591 814 595 C812 595 809 596 806 596 L801 596 L801 595 Z M342 588 L342 583 L343 583 L344 583 L344 588 L344 592 L343 592 L342 592 L342 588 Z M264 587 L265 583 L266 582 L267 582 L267 586 C266 588 266 590 265 590 L264 592 L264 587 Z M793 578 C792 576 789 569 786 563 L781 552 L781 551 C781 551 785 551 789 552 L796 552 L793 554 C791 556 790 557 790 560 C790 567 797 573 807 573 L812 573 L812 575 C812 577 804 580 798 581 L794 581 L793 578 Z M664 575 C663 574 663 570 663 568 C663 565 662 563 662 561 C661 560 660 559 660 559 L660 558 L662 558 L664 557 L664 555 C664 553 663 552 661 550 L658 549 L663 550 C666 550 669 550 669 550 L669 551 L668 553 C666 555 666 557 667 562 C668 566 668 569 667 573 L666 577 L665 577 L664 577 L664 575 Z M701 568 C700 563 698 558 697 555 L694 551 L700 551 L706 551 L704 554 C703 557 703 558 704 562 C705 569 705 571 704 574 L702 575 L701 568 Z M551 569 C549 560 549 558 546 553 C545 551 544 548 544 548 L544 548 L551 548 L558 548 L558 549 C558 549 557 550 556 552 C554 554 554 556 554 562 C554 566 554 571 553 572 L553 574 L552 574 L551 574 L551 569 Z M475 565 C474 557 472 551 470 549 C469 548 468 547 468 547 L468 546 L471 546 C472 546 475 546 477 547 L481 547 L480 549 C479 550 478 554 478 560 C478 566 477 570 476 571 L475 572 L475 565 Z M513 570 C512 569 512 566 512 565 C512 561 509 551 507 549 L506 547 L512 547 L518 547 L518 548 C518 549 518 550 517 550 C517 551 516 556 515 561 C515 567 514 571 514 572 L513 572 L513 570 Z M399 563 C398 552 396 548 391 546 L387 545 L401 545 L416 545 L413 546 C407 547 406 547 405 550 C404 551 403 556 403 560 C403 563 402 567 401 568 L400 570 L399 563 Z M324 563 C324 555 323 552 319 548 L315 544 L323 544 L332 544 L332 545 C332 545 331 546 330 548 C328 550 327 552 327 558 C326 562 326 566 325 566 L324 567 L324 563 Z M437 557 C435 549 435 549 431 547 L427 545 L436 545 L445 545 L445 546 C445 546 444 548 442 549 C440 552 440 553 440 558 C440 562 440 565 439 565 L438 566 L437 557 Z M362 560 C360 551 360 550 357 548 C355 546 354 545 354 545 L354 544 L357 544 C359 544 363 544 365 545 L370 545 L367 548 C366 550 365 552 364 558 C363 561 363 565 363 565 L362 565 L362 560 Z M286 559 C286 553 283 548 280 546 L277 545 L285 544 C290 544 295 544 295 544 L295 545 L292 548 C290 551 289 553 288 557 L288 563 L287 563 L286 563 L286 559 Z M209 555 C208 550 208 548 205 546 L202 543 L210 543 C214 543 218 543 218 544 L219 545 L217 546 C216 547 214 549 213 553 C213 556 211 559 211 560 L210 562 L209 555 Z M248 556 C247 551 245 548 243 546 L240 545 L241 544 C241 543 254 543 255 544 L256 544 L253 548 C252 550 251 553 251 554 C251 556 251 557 250 558 L249 558 L248 556 Z M816 554 L814 553 L818 553 L822 554 L821 555 L821 556 L820 556 C819 556 817 555 816 554 Z M830 554 L830 553 L831 554 C832 554 832 555 832 555 L832 556 L831 556 L830 556 L830 554 Z M417 545 C418 545 420 545 420 545 L422 546 L419 546 L416 546 L417 545 Z M626 671 C626 668 625 664 625 663 L625 660 L626 660 C629 660 631 662 631 667 C631 670 631 673 630 674 L629 677 L628 677 L627 677 L626 671 Z M546 673 C546 672 545 670 544 667 C543 664 543 663 545 658 L547 654 L548 659 C548 662 548 666 548 669 L548 674 L546 673 Z M490 640 C488 635 488 634 489 633 C490 632 492 632 492 632 L494 633 L494 637 C494 640 494 643 493 643 L493 645 L492 645 L491 645 L490 640 Z M168 633 C168 632 168 630 169 630 L169 630 L169 633 L169 636 L168 636 L167 636 L168 633 Z M450 644 C448 636 449 631 453 631 L454 631 L454 636 C454 639 453 643 453 645 L451 648 L450 644 Z M410 637 C409 632 409 630 412 630 L413 630 L413 634 C413 637 413 640 412 640 L412 642 L411 642 L410 642 L410 637 Z M329 635 L330 630 L331 629 L332 629 L333 630 C333 631 333 634 332 637 L331 641 L330 641 L329 641 L329 635 Z M531 642 C528 635 529 629 533 630 L535 631 L535 636 C535 639 534 642 534 644 L532 646 L531 642 Z M288 638 C288 635 288 631 289 631 L289 629 L291 629 L292 629 L292 633 C291 635 290 639 290 640 L288 644 L288 638 Z M248 634 L248 629 L250 629 L251 629 L251 631 C251 632 251 635 250 636 L250 638 L249 638 L248 638 L248 634 Z M207 637 L207 630 L209 630 L210 630 L210 636 C209 639 208 642 208 643 L207 645 L207 637 Z M508 617 L508 615 L509 616 C509 616 509 618 509 618 L508 620 L508 617 Z M535 595 C534 589 535 585 537 585 L538 585 L538 590 C538 593 538 597 537 598 L537 600 L536 600 L535 600 L535 595 Z M430 619 C429 618 429 615 429 613 L430 610 L431 610 L432 610 L432 613 C432 615 432 618 431 619 L430 621 L430 619 Z M469 616 L469 609 L470 609 C472 609 473 613 472 617 C471 620 470 622 470 622 L469 623 L469 616 Z M390 615 L390 612 L391 612 L392 612 L392 615 L392 617 L391 617 L390 617 L390 615 Z M153 615 C153 613 153 611 154 611 L154 611 L155 611 L155 612 L154 615 L152 618 L153 615 Z M311 613 C311 611 311 610 312 610 L313 609 L313 612 L313 616 L312 616 L311 616 L311 613 Z M351 618 C350 617 350 614 351 612 L351 608 L352 608 L353 608 L353 612 C353 615 353 617 352 618 L351 619 L351 618 Z M232 614 L232 612 L233 612 L234 612 L233 614 L233 616 L232 616 L232 616 L232 614 Z M226 584 L227 581 L228 580 L229 580 L228 583 C228 585 227 587 227 588 L226 588 L226 584 Z M186 589 C186 588 186 587 186 585 L187 583 L188 583 L189 583 L189 586 C189 588 189 589 188 589 L187 590 L186 589 Z M457 592 C456 589 457 585 459 584 L460 584 L460 589 L460 594 L459 594 L458 594 L457 592 Z M496 592 L496 586 L497 586 C499 587 499 590 498 595 L498 598 L497 598 L496 598 L496 592 Z M304 589 C304 587 304 584 304 583 L304 581 L305 581 L306 581 L306 585 C306 587 306 589 305 591 L304 593 L304 589 Z M380 592 C380 591 380 589 380 586 L381 583 L382 582 L383 582 L383 587 C383 590 383 592 382 593 L381 593 L380 592 Z M419 591 C418 588 419 583 421 583 L421 583 L421 589 L421 595 L420 595 L419 595 L419 591 Z M795 503 L794 502 L796 502 L797 502 L797 503 C796 504 796 504 796 504 C795 504 795 504 795 503 Z M818 485 L818 484 L820 483 C821 483 823 481 824 479 C825 478 826 476 826 476 L827 476 L827 477 C827 480 823 485 821 485 L819 486 L818 485 Z M659 482 C657 482 656 481 655 480 C653 479 653 477 653 462 C654 453 654 446 654 445 L655 445 L655 459 C656 473 657 478 661 481 L662 482 L661 482 C661 482 660 482 659 482 Z M802 476 C798 475 782 474 766 473 C750 472 734 471 732 471 L727 470 L729 470 C735 469 763 469 764 470 C765 470 776 471 789 471 L812 471 L812 474 L812 477 L810 477 C808 477 805 476 802 476 Z M683 470 C674 469 667 469 667 469 L666 468 L682 468 C691 468 699 468 699 469 L701 469 L700 470 C700 471 699 471 699 471 C698 471 691 470 683 470 Z M799 464 C798 463 782 462 770 462 L759 462 L759 461 C760 460 763 460 766 460 C771 460 772 460 773 458 C774 456 776 456 790 457 C798 458 806 458 807 458 L808 459 L808 460 L808 461 L806 462 C801 464 799 464 799 464 Z M755 461 L755 460 L757 460 L758 460 L758 461 L758 462 L757 462 L755 462 L755 461 Z M732 460 L730 460 L730 459 L731 458 L732 458 C733 458 736 459 739 459 C741 459 746 459 748 459 L753 459 L753 460 L753 461 L744 461 C739 461 733 461 732 460 Z M678 459 L679 459 L680 459 L680 460 L678 460 L677 460 L678 459 Z M695 459 L694 458 L696 458 C698 458 699 457 700 457 C701 454 707 454 714 456 L720 458 L720 459 L720 460 L716 460 C713 460 711 459 710 458 L708 457 L706 458 C703 460 695 460 695 459 Z M665 458 L663 458 L663 457 L663 456 L665 455 C665 455 667 455 668 456 C669 457 670 458 672 458 L674 459 L670 459 C668 459 666 459 665 458 Z M759 456 C756 456 753 455 752 455 L752 454 L754 452 C756 450 757 448 757 447 L757 445 L759 444 L761 444 L762 446 C762 447 764 450 765 451 C767 453 768 455 768 455 L768 457 L766 457 C765 457 762 456 759 456 Z M671 453 C671 451 676 448 679 448 C682 448 687 451 687 453 L687 454 L679 454 L671 454 L671 453 Z M675 445 C675 442 676 441 679 441 L680 442 L680 444 L679 445 L678 446 L676 446 L675 445 Z M717 432 L717 431 L719 429 L721 427 L721 430 L721 433 L719 434 L718 434 L717 432 Z M655 425 L655 420 L656 420 L657 420 L657 424 C657 426 657 428 656 429 L655 429 L655 425 Z M657 395 L657 393 L658 394 C658 394 658 396 658 396 L657 398 L657 395 Z M660 352 L660 349 L661 350 C661 351 661 353 661 353 L660 355 L660 352 Z M744 342 C744 342 746 341 748 340 L751 339 L752 339 L752 340 L751 341 C751 341 749 342 747 343 L743 343 L744 342 Z M661 335 C661 332 662 317 663 302 C664 287 666 263 666 250 C667 237 668 222 668 218 C669 213 670 201 670 191 C672 171 673 168 677 166 C680 165 705 165 752 167 C765 168 788 168 803 169 C843 170 848 171 851 173 C854 176 854 180 852 202 C849 223 849 225 848 245 C847 254 847 263 846 263 L846 263 L846 259 C846 256 846 247 847 240 C850 202 850 189 850 186 C849 183 847 180 844 180 L843 180 L843 181 L843 183 L840 184 C839 184 836 184 834 183 C831 182 819 182 803 182 C789 181 769 181 759 180 C749 179 732 179 721 179 C710 178 696 178 691 178 L681 177 L679 181 C677 186 675 197 673 226 C672 235 670 248 669 255 C669 262 667 277 666 289 C666 301 664 315 664 320 C663 324 663 331 663 334 C663 337 663 339 662 340 L661 340 L661 335 Z M786 177 C785 177 782 176 781 176 L779 176 L779 177 L779 178 L784 178 L789 178 L786 177 Z M716 174 C715 174 713 173 712 173 L711 173 L711 174 L711 175 L715 175 L719 175 L716 174 Z M696 173 L695 173 L694 173 L693 174 L694 174 L696 174 L696 173 Z M784 298 C783 298 783 296 783 294 L783 290 L787 290 C790 290 794 293 794 295 C794 298 786 301 784 298 Z M764 297 C762 296 763 292 766 290 L769 287 L771 288 C773 291 773 294 770 296 C768 298 765 299 764 297 Z M681 294 L678 293 L678 291 C678 289 682 286 685 286 L688 286 L688 289 C688 291 688 293 687 294 C686 295 686 295 681 294 Z M699 294 C698 294 698 292 698 290 L698 287 L700 286 C700 286 702 287 703 288 C705 289 706 290 708 290 L710 291 L710 291 L710 292 L706 293 C704 293 702 294 701 294 L699 295 L699 294 Z M844 281 L844 280 L845 281 L845 282 L845 283 L844 283 L844 281 Z M750 279 C750 279 751 278 752 277 L754 276 L754 277 C755 278 754 280 752 280 L750 280 L750 279 Z M844 277 L844 275 L845 275 L846 275 L846 277 L846 279 L845 279 L844 279 L844 277 Z M721 277 L720 276 L722 274 C724 271 725 271 728 271 L731 272 L727 273 L724 274 L724 276 L724 278 L723 278 C722 278 721 278 721 277 Z M795 267 C794 266 793 265 793 264 L793 263 L795 262 L796 262 L797 263 C798 264 799 266 801 266 L803 267 L803 268 L803 269 L800 269 C798 269 796 268 795 267 Z M714 266 L710 265 L710 263 L710 262 L711 262 C714 262 719 265 719 267 L719 268 L719 268 C719 268 717 267 714 266 Z M681 263 C681 262 681 260 682 257 L683 252 L684 252 L685 252 L685 257 L685 262 L683 263 L681 263 L681 263 Z M767 257 C766 256 766 254 766 253 L767 252 L769 252 L771 252 L771 256 L771 259 L770 259 C769 259 768 258 767 257 Z M681 246 L682 245 L684 244 L686 244 L686 245 C686 246 683 248 681 248 L681 248 L681 246 Z M795 245 L795 241 L796 241 L798 241 L798 243 C799 245 799 246 797 247 L795 248 L795 245 Z M712 245 L710 245 L710 242 L710 240 L711 240 C711 240 712 240 713 241 C713 242 714 243 716 243 L718 244 L718 245 L718 246 L716 246 C715 246 713 246 712 245 Z M824 238 C824 238 825 236 827 236 L829 235 L829 226 C829 219 829 217 830 215 C832 214 832 212 831 210 L831 207 L832 207 L834 207 L834 209 C834 211 834 215 833 219 C832 223 832 229 832 233 L831 239 L829 238 C828 238 827 238 827 239 C826 240 825 240 824 240 L823 240 L824 238 Z M771 238 C770 238 770 236 770 235 L770 232 L772 232 L773 232 L773 234 C773 235 773 236 772 237 L771 239 L771 238 Z M711 236 L710 236 L710 234 C710 233 710 232 711 232 L711 231 L714 233 L717 235 L716 236 C716 237 713 237 711 236 Z M685 230 C685 229 685 225 686 220 C686 208 687 207 687 204 L688 202 L689 202 L690 202 L690 208 C690 212 690 215 689 216 C688 216 688 219 688 223 C688 227 688 230 687 230 L686 231 L685 230 Z M797 222 C797 217 797 211 798 210 C798 208 798 202 799 197 C799 191 799 186 800 185 L800 184 L804 184 C807 185 814 185 822 186 L835 186 L835 188 C835 190 835 193 835 196 L835 201 L834 201 L833 201 L833 199 C833 198 833 197 832 196 L832 195 L830 197 C828 199 826 199 824 199 L821 198 L821 199 C820 200 818 200 816 200 L813 200 L813 198 L813 195 L809 195 C807 194 806 194 805 194 L805 195 L805 196 C806 197 807 197 808 197 L809 197 L809 198 L809 200 L807 201 C806 201 804 201 804 200 L802 199 L802 200 C801 201 801 208 800 215 C800 222 800 228 799 229 L799 231 L797 231 L796 231 L797 222 Z M770 226 C770 225 771 222 771 219 C772 217 773 214 773 213 L772 212 L771 212 L769 212 L770 209 C771 207 772 205 772 204 C772 203 772 201 773 201 L773 199 L775 199 L776 199 L776 205 C775 208 775 213 774 216 C774 219 774 223 773 224 L773 227 L772 227 L771 227 L770 226 Z M718 224 C719 223 723 223 724 225 L724 226 L720 226 L717 226 L718 224 Z M840 211 C841 208 842 204 842 203 L843 202 L843 207 C843 209 843 213 842 215 L842 218 L841 218 L840 218 L840 211 Z M746 215 C747 214 748 211 749 208 L749 203 L750 203 L751 203 L751 209 C751 215 750 217 747 217 L745 217 L746 215 Z M712 208 C712 207 712 205 712 205 L713 203 L714 203 L715 203 L715 206 L715 209 L714 209 L713 209 L712 208 Z M811 204 L811 203 L817 203 L824 203 L822 204 C821 205 818 205 816 205 L811 205 L811 204 Z M713 195 L713 192 L715 192 L718 193 L718 195 L718 198 L715 198 L713 198 L713 195 Z M686 196 C684 196 683 195 683 195 L682 194 L683 193 C684 192 686 192 687 192 L690 192 L690 194 L690 196 L689 197 C688 197 687 197 686 196 Z M748 195 C749 193 749 192 748 188 L748 185 L749 184 C752 183 753 185 752 191 L752 196 L750 197 L748 197 L748 195 Z M772 190 C771 189 770 188 770 187 L770 186 L773 186 C777 185 778 186 778 189 L777 191 L776 191 C775 191 773 190 772 190 Z M715 186 L715 184 L721 183 L726 183 L726 184 L726 185 L722 186 C720 187 717 188 716 188 L715 188 L715 186 Z M730 184 L731 183 L735 183 C737 183 740 184 741 185 L742 186 L736 186 L730 186 L730 184 Z M516 481 L515 480 L517 480 L518 480 L518 481 C517 482 517 482 517 482 C516 482 516 482 516 481 Z M544 481 L544 480 L545 480 L546 480 L546 481 L546 482 L545 482 L544 482 L544 481 Z M549 481 L549 480 L555 480 L561 480 L561 481 L561 482 L555 482 L549 482 L549 481 Z M571 481 L571 480 L591 481 C613 481 617 481 622 476 L625 473 L626 473 L626 474 L624 477 C621 481 617 482 593 482 L571 482 L571 481 Z M191 475 C188 474 184 466 186 464 L187 463 L187 464 C187 468 192 472 200 474 L208 476 L201 476 C197 476 192 475 191 475 Z M434 458 C433 458 415 458 395 458 C375 457 353 457 347 456 C340 456 326 455 315 454 C288 453 272 451 247 447 C240 446 235 445 235 445 C234 445 232 444 231 444 C227 443 223 439 220 435 C218 431 215 420 214 408 C214 404 213 396 213 390 C212 384 212 378 212 376 C211 374 211 368 211 363 C210 357 210 346 209 339 C209 332 208 303 208 276 C208 237 208 222 210 209 C210 199 212 190 212 189 C213 187 215 184 217 181 C224 172 231 171 296 169 C330 168 360 168 466 170 C519 170 572 173 587 176 C593 177 603 182 606 186 C610 190 610 195 611 234 C611 270 611 273 610 275 C608 277 607 282 605 314 C604 334 603 355 602 360 C601 364 600 375 600 383 C598 399 594 429 592 434 C589 444 581 450 568 452 C549 456 451 460 434 458 Z M250 444 C250 443 246 442 241 441 C231 437 227 434 224 426 L222 421 L221 421 L220 421 L221 425 C222 433 227 438 235 441 C241 443 249 445 250 444 L250 444 L250 444 Z M220 415 L219 414 L219 415 L219 417 L220 417 L220 416 L220 415 Z M633 345 L633 343 L634 344 C634 344 634 346 634 346 L633 348 L633 345 Z M634 317 L634 314 L635 315 C635 316 635 318 635 318 L634 320 L634 317 Z M610 304 L610 302 L611 303 C611 303 611 305 611 305 L610 307 L610 304 Z M636 291 L636 288 L637 289 C637 290 637 292 637 292 L636 294 L636 291 Z M181 265 L181 262 L182 263 C182 264 182 266 182 266 L181 268 L181 265 Z M181 254 L181 250 L182 252 C182 253 182 255 182 256 L181 258 L181 254 Z M181 245 C180 243 180 239 180 237 L180 232 L181 235 C182 237 182 240 182 243 L182 249 L181 245 Z M639 233 L639 224 L640 224 L641 224 L640 231 C640 235 640 239 640 241 L639 243 L639 233 Z M180 198 C180 166 181 164 183 162 C184 159 185 159 190 159 L195 159 L191 161 C187 162 186 164 183 169 C182 172 182 178 182 200 C182 218 182 229 181 230 L180 232 L180 198 Z M616 228 C615 228 615 225 615 223 L615 218 L616 222 C617 224 617 226 617 227 L617 229 L616 228 Z M640 213 L640 205 L641 205 L642 205 L641 212 C641 215 641 219 640 220 L640 221 L640 213 Z M615 216 C614 214 614 211 614 207 L614 201 L615 202 C616 202 616 206 616 210 L616 218 L615 216 Z M641 198 L641 194 L642 196 C642 197 642 199 642 200 L641 203 L641 198 Z M641 183 C641 175 640 174 638 171 C634 167 628 166 615 166 C601 166 596 167 595 169 L595 170 L598 173 L601 176 L601 177 L600 177 L595 175 C588 172 581 171 555 169 C532 167 516 167 455 165 C409 165 313 165 282 165 L252 166 L252 165 C252 164 252 163 251 163 C251 162 243 161 235 160 C227 160 220 159 220 158 L219 158 L254 159 C274 159 304 159 322 160 C409 161 479 162 522 162 C548 163 575 163 582 163 C588 164 602 164 613 165 C637 165 638 165 641 169 C643 171 643 172 643 181 C642 186 642 191 642 191 L641 191 L641 183 Z M243 167 L243 166 L244 166 L245 166 L245 167 C244 168 244 168 243 168 L243 168 L243 167 Z M208 158 C210 158 212 158 214 158 L218 159 L211 159 L205 159 L208 158 Z M145 475 L141 474 L145 474 C149 474 152 472 155 468 L157 465 L157 468 C157 471 156 472 154 474 C152 475 150 476 150 476 C149 476 147 475 145 475 Z M81 472 C79 472 78 470 77 468 C77 466 76 464 77 464 L77 464 L81 468 C83 470 85 472 87 473 L89 474 L86 474 C85 474 82 473 81 472 Z M112 395 L109 395 L109 393 L109 392 L110 391 C111 391 117 391 124 392 L136 393 L132 394 C129 396 121 396 112 395 Z M122 365 L120 365 L121 364 C121 363 125 363 131 363 L140 363 L140 364 L140 365 L134 365 C130 365 127 365 126 365 C125 366 123 366 122 365 Z M107 354 C106 352 106 347 107 347 C107 346 110 347 112 347 C116 349 117 352 115 354 C113 355 109 355 107 354 Z M114 341 C113 340 113 337 113 336 L113 333 L114 333 C116 333 117 340 115 342 L114 343 L114 341 Z M105 332 C105 330 105 328 105 326 L106 324 L107 323 C109 323 113 327 113 328 C113 329 111 330 110 330 L108 330 L108 332 L108 334 L107 334 L106 334 L105 332 Z M154 332 L154 331 L155 332 L155 333 L155 334 L154 334 L154 332 Z M154 320 C154 318 154 316 154 315 L155 315 L155 319 L155 324 L155 324 L154 324 L154 320 Z M123 314 C122 314 118 314 114 314 C109 314 105 314 104 313 L103 313 L103 311 L103 310 L118 310 C126 310 133 310 133 311 L134 312 L133 313 C132 314 124 315 123 314 Z M153 296 C152 267 148 187 147 177 C146 161 146 161 107 161 C77 161 76 162 74 164 C73 165 71 168 71 170 C70 173 70 196 70 223 L70 271 L70 271 C69 271 69 257 68 241 C68 224 68 208 67 205 C67 200 67 170 67 163 C67 162 68 160 69 159 C71 157 72 157 108 157 C147 157 148 157 151 162 C151 164 152 179 153 209 C153 233 153 254 154 257 C154 266 154 313 154 313 L153 314 L153 296 Z M70 285 L70 284 L71 285 L71 286 L71 287 L70 287 L70 285 Z M125 265 C121 261 118 259 112 259 L108 258 L108 256 L108 255 L114 255 C117 256 121 257 122 258 C125 260 129 265 129 267 L129 269 L128 269 C128 269 126 267 125 265 Z M93 241 C92 241 92 240 92 239 L92 237 L105 237 C113 237 119 238 120 238 C121 238 124 238 127 238 C131 237 133 237 135 238 L137 239 L136 241 C134 242 129 242 113 242 C102 242 93 242 93 241 Z M122 207 C119 202 114 200 109 200 L104 200 L106 198 C108 196 108 196 113 197 C121 199 126 204 126 210 L126 211 L125 211 C125 211 123 209 122 207 Z M123 184 C123 184 115 184 104 184 L86 184 L85 181 L85 178 L107 179 C137 179 137 179 138 181 L139 182 L138 183 C137 185 135 185 130 185 C127 185 124 184 123 184 Z M668 105 L668 104 L669 104 L670 104 L670 105 L670 106 L669 106 L668 106 L668 105 Z M740 65 C739 65 735 64 732 63 L726 62 L725 55 C725 45 724 44 712 44 L704 44 L705 45 C705 46 709 46 713 46 C719 46 720 47 722 48 C723 51 723 55 722 59 L722 61 L717 61 C714 61 713 61 712 58 C710 54 703 49 698 46 C695 44 693 42 693 42 L693 41 L713 41 C730 42 733 42 737 44 C744 47 745 49 745 58 L745 65 L743 66 C742 66 741 66 740 65 Z M151 33 L151 32 L153 32 C153 31 155 31 157 32 L159 32 L158 33 C158 34 156 34 154 34 L151 34 L151 33 Z "/>
</svg>